# xmcd
# 
# Track frame offsets:
#     150
#     7622
#     24950
#     36422
#     39122
#     52610
#     56510
#     67552
#     70587
#     73532
#     77775
#     90397
#     97100
#     103735
#     110120
#     120742
#     123112
#     130560
#     140187
#     150275
#     166182
#     178720
#     185167
#     196392
#     200535
#     207327
#     212940
#     222572
#     229135
#     236100
#     241125
#     255562
#     261800
# 
# Disc length: 3792
# 
# Revision: 50
# Processed by: cddbd v1.5.2PL0 Copyright (c) Steve Scherf et al.
# Submitted via: fre:ac v1.1beta2
# 
DISCID=c60ece21
DTITLE=スタジオジブリ 久石譲 - もののけ姫 サウンドトラック
DYEAR=1997
DGENRE=Anime
TTITLE0=アシタカ𦻙記（せっき）
TTITLE1=タタリ神
TTITLE2=旅立ち －西へ－
TTITLE3=呪われた力
TTITLE4=穢土
TTITLE5=出会い
TTITLE6=コダマ達
TTITLE7=神の森
TTITLE8=夕暮れのタタラ場
TTITLE9=タタリ神Ⅱ－うばわれた山－
TTITLE10=エボシ御前
TTITLE11=タタラ踏む女達 －エボシ タタラうた－
TTITLE12=修羅
TTITLE13=東から来た少年
TTITLE14=レクイエム
TTITLE15=生きろ
TTITLE16=シシ神の森の二人
TTITLE17=もののけ姫 インストゥルメンタル・バージョン
TTITLE18=レクイエムⅡ
TTITLE19=もののけ姫 ヴォーカル
TTITLE20=戦いの太鼓
TTITLE21=タタラ場前の闘い
TTITLE22=呪われた力Ⅱ
TTITLE23=レクイエムⅢ
TTITLE24=敗走
TTITLE25=タタリ神Ⅲ
TTITLE26=死と生のアダージョ
TTITLE27=黄泉の世界
TTITLE28=黄泉の世界Ⅱ
TTITLE29=死と生のアダージョⅡ
TTITLE30=アシタカとサン
TTITLE31=もののけ姫 ヴォーカル エンディング
TTITLE32=アシタカ𦻙記（せっき） エンディング
EXTD=
EXTT0=
EXTT1=
EXTT2=
EXTT3=
EXTT4=
EXTT5=
EXTT6=
EXTT7=
EXTT8=
EXTT9=
EXTT10=
EXTT11=ヴォーカル: 新倉芳美/木村真紀/下成佐登子
EXTT12=
EXTT13=
EXTT14=
EXTT15=
EXTT16=
EXTT17=
EXTT18=
EXTT19=ヴォーカル: 米良美一
EXTT20=
EXTT21=
EXTT22=
EXTT23=
EXTT24=
EXTT25=
EXTT26=
EXTT27=
EXTT28=
EXTT29=
EXTT30=
EXTT31=ヴォーカル: 米良美一
EXTT32=
PLAYORDER=
